<svg width="242" height="50" viewBox="0 0 242 50" fill="none" xmlns="http://www.w3.org/2000/svg">
<g clip-path="url(#clip0_6_278)">
<rect width="242" height="50" rx="8" fill="#F2F7DF"/>
<rect width="50" height="50" fill="#849C00"/>
<g clip-path="url(#clip1_6_278)">
<rect x="30" y="19" width="10" height="15" rx="2" transform="rotate(90 30 19)" stroke="white" stroke-width="2"/>
<rect x="20" y="21" width="6" height="3" rx="0.8" transform="rotate(90 20 21)" fill="white"/>
<rect x="24" y="21" width="6" height="3" rx="0.8" transform="rotate(90 24 21)" fill="white"/>
<path d="M35 25C35 25.9428 34.9999 26.4141 34.707 26.707C34.4141 26.9999 33.9428 27 33 27V21C33.9428 21 34.4141 21.0001 34.707 21.293C34.9999 21.5859 35 22.0572 35 23V25Z" fill="white"/>
</g>
<path d="M65.648 19.328C66.3413 19.328 66.944 19.472 67.456 19.76C67.968 20.048 68.3573 20.4427 68.624 20.944C68.9013 21.4347 69.04 21.984 69.04 22.592C69.04 23.1893 68.9013 23.7387 68.624 24.24C68.3573 24.7413 67.968 25.136 67.456 25.424C66.944 25.712 66.3413 25.856 65.648 25.856H62.736V30H61.2V19.328H65.648ZM62.736 24.496H65.488C66.0747 24.496 66.5493 24.32 66.912 23.968C67.2747 23.616 67.456 23.1573 67.456 22.592C67.456 22.016 67.2747 21.5573 66.912 21.216C66.5493 20.864 66.0747 20.688 65.488 20.688H62.736V24.496ZM74.0916 30.192C73.3236 30.192 72.6463 30.016 72.0596 29.664C71.473 29.3013 71.0196 28.8107 70.6996 28.192C70.3796 27.5733 70.2196 26.8853 70.2196 26.128C70.2196 25.3707 70.3796 24.688 70.6996 24.08C71.0196 23.4613 71.473 22.976 72.0596 22.624C72.6463 22.2613 73.3236 22.08 74.0916 22.08C74.8703 22.08 75.553 22.2613 76.1396 22.624C76.7263 22.976 77.1796 23.4613 77.4996 24.08C77.8196 24.688 77.9796 25.3707 77.9796 26.128C77.9796 26.8853 77.8196 27.5733 77.4996 28.192C77.1796 28.8107 76.7263 29.3013 76.1396 29.664C75.553 30.016 74.8703 30.192 74.0916 30.192ZM74.0916 28.96C74.8383 28.96 75.4303 28.6933 75.8676 28.16C76.3156 27.616 76.5396 26.9387 76.5396 26.128C76.5396 25.328 76.3156 24.656 75.8676 24.112C75.4303 23.568 74.8383 23.296 74.0916 23.296C73.601 23.296 73.169 23.424 72.7956 23.68C72.433 23.9253 72.1503 24.2667 71.9476 24.704C71.7556 25.1307 71.6596 25.6053 71.6596 26.128C71.6596 26.9387 71.8783 27.616 72.3156 28.16C72.7636 28.6933 73.3556 28.96 74.0916 28.96ZM80.2715 22.272L82.0635 28.224L84.0155 22.272H85.2315L87.1835 28.224L88.9595 22.272H90.4155L87.9675 30H86.5595L84.6235 24L82.6875 30H81.2795L78.8315 22.272H80.2715ZM98.3385 29.024C97.9438 29.408 97.4745 29.7013 96.9305 29.904C96.3972 30.096 95.8372 30.192 95.2505 30.192C94.4825 30.192 93.7945 30.0213 93.1865 29.68C92.5892 29.3387 92.1198 28.864 91.7785 28.256C91.4372 27.6373 91.2665 26.928 91.2665 26.128C91.2665 25.3707 91.4318 24.6827 91.7625 24.064C92.0932 23.4453 92.5518 22.96 93.1385 22.608C93.7252 22.256 94.3812 22.08 95.1065 22.08C95.8532 22.08 96.5092 22.256 97.0745 22.608C97.6505 22.96 98.0932 23.4507 98.4025 24.08C98.7118 24.7093 98.8665 25.4293 98.8665 26.24V26.56H92.7225C92.7758 27.2853 93.0425 27.8827 93.5225 28.352C94.0025 28.8213 94.6212 29.056 95.3785 29.056C95.8052 29.056 96.2212 28.976 96.6265 28.816C97.0318 28.656 97.3785 28.4267 97.6665 28.128L98.3385 29.024ZM97.5065 25.552C97.4958 25.1253 97.3945 24.7307 97.2025 24.368C97.0105 24.0053 96.7332 23.7173 96.3705 23.504C96.0078 23.28 95.5865 23.168 95.1065 23.168C94.6372 23.168 94.2265 23.2853 93.8745 23.52C93.5225 23.7547 93.2452 24.0533 93.0425 24.416C92.8505 24.7787 92.7385 25.1573 92.7065 25.552H97.5065ZM102.075 22.272V23.232C102.363 22.8587 102.737 22.576 103.195 22.384C103.654 22.192 104.129 22.096 104.619 22.096V23.488C104.545 23.4667 104.385 23.456 104.139 23.456C103.883 23.456 103.59 23.5147 103.259 23.632C102.939 23.7387 102.662 23.888 102.427 24.08C102.193 24.272 102.075 24.48 102.075 24.704V30H100.699V22.272H102.075ZM116.631 21.744C115.831 20.9013 114.802 20.48 113.543 20.48C112.935 20.48 112.439 20.6293 112.055 20.928C111.682 21.2267 111.495 21.6053 111.495 22.064C111.495 22.3733 111.639 22.6347 111.927 22.848C112.215 23.0613 112.61 23.248 113.111 23.408C113.154 23.4293 113.437 23.52 113.959 23.68C114.599 23.872 115.127 24.048 115.543 24.208C115.97 24.368 116.354 24.5707 116.695 24.816C117.026 25.0507 117.287 25.3547 117.479 25.728C117.682 26.0907 117.783 26.512 117.783 26.992C117.783 28.0053 117.415 28.7947 116.679 29.36C115.954 29.9147 114.983 30.192 113.767 30.192C112.871 30.192 112.071 30.0427 111.367 29.744C110.663 29.4453 110.066 29.0293 109.575 28.496L110.471 27.36C110.887 27.8507 111.378 28.224 111.943 28.48C112.519 28.736 113.149 28.864 113.831 28.864C114.535 28.864 115.106 28.72 115.543 28.432C115.981 28.1333 116.199 27.7067 116.199 27.152C116.199 26.7893 116.082 26.496 115.847 26.272C115.613 26.0373 115.325 25.856 114.983 25.728C114.642 25.6 114.162 25.456 113.543 25.296C112.775 25.0933 112.151 24.896 111.671 24.704C111.191 24.5013 110.781 24.1973 110.439 23.792C110.098 23.3867 109.927 22.848 109.927 22.176C109.927 21.6107 110.082 21.0987 110.391 20.64C110.701 20.1707 111.138 19.808 111.703 19.552C112.279 19.2853 112.935 19.152 113.671 19.152C115.282 19.152 116.567 19.6533 117.527 20.656L116.631 21.744ZM122.826 30.192C122.058 30.192 121.381 30.016 120.794 29.664C120.207 29.3013 119.754 28.8107 119.434 28.192C119.114 27.5733 118.954 26.8853 118.954 26.128C118.954 25.3707 119.114 24.688 119.434 24.08C119.754 23.4613 120.207 22.976 120.794 22.624C121.381 22.2613 122.058 22.08 122.826 22.08C123.605 22.08 124.287 22.2613 124.874 22.624C125.461 22.976 125.914 23.4613 126.234 24.08C126.554 24.688 126.714 25.3707 126.714 26.128C126.714 26.8853 126.554 27.5733 126.234 28.192C125.914 28.8107 125.461 29.3013 124.874 29.664C124.287 30.016 123.605 30.192 122.826 30.192ZM122.826 28.96C123.573 28.96 124.165 28.6933 124.602 28.16C125.05 27.616 125.274 26.9387 125.274 26.128C125.274 25.328 125.05 24.656 124.602 24.112C124.165 23.568 123.573 23.296 122.826 23.296C122.335 23.296 121.903 23.424 121.53 23.68C121.167 23.9253 120.885 24.2667 120.682 24.704C120.49 25.1307 120.394 25.6053 120.394 26.128C120.394 26.9387 120.613 27.616 121.05 28.16C121.498 28.6933 122.09 28.96 122.826 28.96ZM129.56 22.272V27.264C129.56 27.872 129.698 28.3093 129.976 28.576C130.253 28.832 130.669 28.96 131.224 28.96C131.757 28.96 132.253 28.8267 132.712 28.56C133.17 28.2827 133.4 27.872 133.4 27.328V22.272H134.776V30H133.4V29.072C133.144 29.4133 132.765 29.6853 132.264 29.888C131.762 30.0907 131.224 30.192 130.648 30.192C129.005 30.192 128.184 29.3707 128.184 27.728V22.272H129.56ZM138.466 22.272V23.232C138.754 22.8587 139.127 22.576 139.586 22.384C140.045 22.192 140.519 22.096 141.01 22.096V23.488C140.935 23.4667 140.775 23.456 140.53 23.456C140.274 23.456 139.981 23.5147 139.65 23.632C139.33 23.7387 139.053 23.888 138.818 24.08C138.583 24.272 138.466 24.48 138.466 24.704V30H137.09V22.272H138.466ZM145.405 30.192C144.658 30.192 143.986 30.016 143.389 29.664C142.802 29.312 142.338 28.832 141.997 28.224C141.666 27.6053 141.501 26.9067 141.501 26.128C141.501 25.3493 141.666 24.656 141.997 24.048C142.338 23.4293 142.802 22.9493 143.389 22.608C143.986 22.256 144.658 22.08 145.405 22.08C146.066 22.08 146.626 22.2027 147.085 22.448C147.554 22.6827 147.954 23.0133 148.285 23.44L147.373 24.272C146.904 23.6213 146.269 23.296 145.469 23.296C144.722 23.296 144.114 23.5627 143.645 24.096C143.176 24.6187 142.941 25.296 142.941 26.128C142.941 26.9707 143.176 27.6533 143.645 28.176C144.114 28.6987 144.722 28.96 145.469 28.96C146.269 28.96 146.904 28.6347 147.373 27.984L148.285 28.832C147.954 29.2587 147.554 29.5947 147.085 29.84C146.626 30.0747 146.066 30.192 145.405 30.192ZM156.51 29.024C156.116 29.408 155.646 29.7013 155.102 29.904C154.569 30.096 154.009 30.192 153.422 30.192C152.654 30.192 151.966 30.0213 151.358 29.68C150.761 29.3387 150.292 28.864 149.95 28.256C149.609 27.6373 149.438 26.928 149.438 26.128C149.438 25.3707 149.604 24.6827 149.934 24.064C150.265 23.4453 150.724 22.96 151.31 22.608C151.897 22.256 152.553 22.08 153.278 22.08C154.025 22.08 154.681 22.256 155.246 22.608C155.822 22.96 156.265 23.4507 156.574 24.08C156.884 24.7093 157.038 25.4293 157.038 26.24V26.56H150.894C150.948 27.2853 151.214 27.8827 151.694 28.352C152.174 28.8213 152.793 29.056 153.55 29.056C153.977 29.056 154.393 28.976 154.798 28.816C155.204 28.656 155.55 28.4267 155.838 28.128L156.51 29.024ZM155.678 25.552C155.668 25.1253 155.566 24.7307 155.374 24.368C155.182 24.0053 154.905 23.7173 154.542 23.504C154.18 23.28 153.758 23.168 153.278 23.168C152.809 23.168 152.398 23.2853 152.046 23.52C151.694 23.7547 151.417 24.0533 151.214 24.416C151.022 24.7787 150.91 25.1573 150.878 25.552H155.678Z" fill="black"/>
</g>
<defs>
<clipPath id="clip0_6_278">
<rect width="242" height="50" rx="8" fill="white"/>
</clipPath>
<clipPath id="clip1_6_278">
<rect width="24" height="24" fill="white" transform="translate(13 13)"/>
</clipPath>
</defs>
</svg>
