<svg width="242" height="50" viewBox="0 0 242 50" fill="none" xmlns="http://www.w3.org/2000/svg">
<g clip-path="url(#clip0_6_278)">
<rect width="242" height="50" rx="8" fill="#EADFF2"/>
<rect width="50" height="50" fill="#902A9C"/>
<g clip-path="url(#clip1_6_278)">
<path d="M33 23H29V27H33V29H29V32H27V30H25C22.581 30 20.5633 28.2822 20.1 26H15V24H20.1C20.5633 21.7178 22.581 20 25 20H27V18H29V21H33V23Z" fill="white"/>
</g>
<path d="M65.648 19.328C66.3413 19.328 66.944 19.472 67.456 19.76C67.968 20.048 68.3573 20.4427 68.624 20.944C68.9013 21.4347 69.04 21.984 69.04 22.592C69.04 23.1893 68.9013 23.7387 68.624 24.24C68.3573 24.7413 67.968 25.136 67.456 25.424C66.944 25.712 66.3413 25.856 65.648 25.856H62.736V30H61.2V19.328H65.648ZM62.736 24.496H65.488C66.0747 24.496 66.5493 24.32 66.912 23.968C67.2747 23.616 67.456 23.1573 67.456 22.592C67.456 22.016 67.2747 21.5573 66.912 21.216C66.5493 20.864 66.0747 20.688 65.488 20.688H62.736V24.496ZM74.0916 30.192C73.3236 30.192 72.6463 30.016 72.0596 29.664C71.473 29.3013 71.0196 28.8107 70.6996 28.192C70.3796 27.5733 70.2196 26.8853 70.2196 26.128C70.2196 25.3707 70.3796 24.688 70.6996 24.08C71.0196 23.4613 71.473 22.976 72.0596 22.624C72.6463 22.2613 73.3236 22.08 74.0916 22.08C74.8703 22.08 75.553 22.2613 76.1396 22.624C76.7263 22.976 77.1796 23.4613 77.4996 24.08C77.8196 24.688 77.9796 25.3707 77.9796 26.128C77.9796 26.8853 77.8196 27.5733 77.4996 28.192C77.1796 28.8107 76.7263 29.3013 76.1396 29.664C75.553 30.016 74.8703 30.192 74.0916 30.192ZM74.0916 28.96C74.8383 28.96 75.4303 28.6933 75.8676 28.16C76.3156 27.616 76.5396 26.9387 76.5396 26.128C76.5396 25.328 76.3156 24.656 75.8676 24.112C75.4303 23.568 74.8383 23.296 74.0916 23.296C73.601 23.296 73.169 23.424 72.7956 23.68C72.433 23.9253 72.1503 24.2667 71.9476 24.704C71.7556 25.1307 71.6596 25.6053 71.6596 26.128C71.6596 26.9387 71.8783 27.616 72.3156 28.16C72.7636 28.6933 73.3556 28.96 74.0916 28.96ZM80.2715 22.272L82.0635 28.224L84.0155 22.272H85.2315L87.1835 28.224L88.9595 22.272H90.4155L87.9675 30H86.5595L84.6235 24L82.6875 30H81.2795L78.8315 22.272H80.2715ZM98.3385 29.024C97.9438 29.408 97.4745 29.7013 96.9305 29.904C96.3972 30.096 95.8372 30.192 95.2505 30.192C94.4825 30.192 93.7945 30.0213 93.1865 29.68C92.5892 29.3387 92.1198 28.864 91.7785 28.256C91.4372 27.6373 91.2665 26.928 91.2665 26.128C91.2665 25.3707 91.4318 24.6827 91.7625 24.064C92.0932 23.4453 92.5518 22.96 93.1385 22.608C93.7252 22.256 94.3812 22.08 95.1065 22.08C95.8532 22.08 96.5092 22.256 97.0745 22.608C97.6505 22.96 98.0932 23.4507 98.4025 24.08C98.7118 24.7093 98.8665 25.4293 98.8665 26.24V26.56H92.7225C92.7758 27.2853 93.0425 27.8827 93.5225 28.352C94.0025 28.8213 94.6212 29.056 95.3785 29.056C95.8052 29.056 96.2212 28.976 96.6265 28.816C97.0318 28.656 97.3785 28.4267 97.6665 28.128L98.3385 29.024ZM97.5065 25.552C97.4958 25.1253 97.3945 24.7307 97.2025 24.368C97.0105 24.0053 96.7332 23.7173 96.3705 23.504C96.0078 23.28 95.5865 23.168 95.1065 23.168C94.6372 23.168 94.2265 23.2853 93.8745 23.52C93.5225 23.7547 93.2452 24.0533 93.0425 24.416C92.8505 24.7787 92.7385 25.1573 92.7065 25.552H97.5065ZM102.075 22.272V23.232C102.363 22.8587 102.737 22.576 103.195 22.384C103.654 22.192 104.129 22.096 104.619 22.096V23.488C104.545 23.4667 104.385 23.456 104.139 23.456C103.883 23.456 103.59 23.5147 103.259 23.632C102.939 23.7387 102.662 23.888 102.427 24.08C102.193 24.272 102.075 24.48 102.075 24.704V30H100.699V22.272H102.075ZM114.407 30.16C113.522 30.16 112.727 29.9787 112.023 29.616C111.319 29.2533 110.77 28.752 110.375 28.112C109.981 27.4613 109.783 26.7253 109.783 25.904V23.472C109.794 22.64 109.997 21.904 110.391 21.264C110.786 20.6133 111.33 20.112 112.023 19.76C112.717 19.3973 113.511 19.216 114.407 19.216C115.527 19.216 116.45 19.4933 117.175 20.048C117.901 20.592 118.375 21.3013 118.599 22.176L117.239 22.768C117.122 22.1067 116.807 21.5787 116.295 21.184C115.783 20.7787 115.154 20.576 114.407 20.576C113.479 20.576 112.738 20.848 112.183 21.392C111.629 21.9253 111.346 22.624 111.335 23.488V25.904C111.335 26.448 111.458 26.9387 111.703 27.376C111.959 27.8133 112.322 28.16 112.791 28.416C113.261 28.6613 113.799 28.784 114.407 28.784C115.133 28.784 115.751 28.592 116.263 28.208C116.775 27.824 117.101 27.328 117.239 26.72L118.583 27.28C118.349 28.1013 117.869 28.7893 117.143 29.344C116.418 29.888 115.506 30.16 114.407 30.16ZM123.873 30.192C123.105 30.192 122.428 30.016 121.841 29.664C121.254 29.3013 120.801 28.8107 120.481 28.192C120.161 27.5733 120.001 26.8853 120.001 26.128C120.001 25.3707 120.161 24.688 120.481 24.08C120.801 23.4613 121.254 22.976 121.841 22.624C122.428 22.2613 123.105 22.08 123.873 22.08C124.652 22.08 125.334 22.2613 125.921 22.624C126.508 22.976 126.961 23.4613 127.281 24.08C127.601 24.688 127.761 25.3707 127.761 26.128C127.761 26.8853 127.601 27.5733 127.281 28.192C126.961 28.8107 126.508 29.3013 125.921 29.664C125.334 30.016 124.652 30.192 123.873 30.192ZM123.873 28.96C124.62 28.96 125.212 28.6933 125.649 28.16C126.097 27.616 126.321 26.9387 126.321 26.128C126.321 25.328 126.097 24.656 125.649 24.112C125.212 23.568 124.62 23.296 123.873 23.296C123.382 23.296 122.95 23.424 122.577 23.68C122.214 23.9253 121.932 24.2667 121.729 24.704C121.537 25.1307 121.441 25.6053 121.441 26.128C121.441 26.9387 121.66 27.616 122.097 28.16C122.545 28.6933 123.137 28.96 123.873 28.96ZM130.81 22.272V23.248C131.055 22.8533 131.423 22.56 131.914 22.368C132.404 22.176 132.948 22.08 133.546 22.08C135.199 22.08 136.026 22.912 136.026 24.576V30H134.65V25.024C134.65 24.416 134.506 23.9787 134.218 23.712C133.94 23.4347 133.53 23.296 132.986 23.296C132.655 23.296 132.319 23.36 131.978 23.488C131.647 23.616 131.37 23.8133 131.146 24.08C130.922 24.3467 130.81 24.6773 130.81 25.072V30H129.434V22.272H130.81ZM143.14 24.08C142.884 23.7813 142.558 23.5467 142.164 23.376C141.769 23.2053 141.332 23.12 140.852 23.12C140.361 23.12 139.966 23.2267 139.668 23.44C139.38 23.6427 139.236 23.9147 139.236 24.256C139.236 24.576 139.385 24.816 139.684 24.976C139.993 25.136 140.468 25.2907 141.108 25.44C141.716 25.5893 142.206 25.7387 142.58 25.888C142.964 26.0267 143.289 26.2507 143.556 26.56C143.833 26.8693 143.972 27.2853 143.972 27.808C143.972 28.512 143.694 29.088 143.14 29.536C142.596 29.9733 141.838 30.192 140.868 30.192C140.238 30.192 139.646 30.0853 139.092 29.872C138.537 29.6587 138.068 29.36 137.684 28.976L138.356 28.032C138.654 28.3627 139.033 28.6293 139.492 28.832C139.961 29.024 140.441 29.12 140.932 29.12C141.465 29.12 141.881 29.008 142.18 28.784C142.489 28.5493 142.644 28.2453 142.644 27.872C142.644 27.5307 142.484 27.28 142.164 27.12C141.854 26.9493 141.369 26.7893 140.708 26.64C140.11 26.4907 139.625 26.3467 139.252 26.208C138.878 26.0693 138.558 25.8507 138.292 25.552C138.036 25.2427 137.908 24.8373 137.908 24.336C137.908 23.92 138.025 23.5413 138.26 23.2C138.494 22.848 138.83 22.576 139.268 22.384C139.716 22.1813 140.238 22.08 140.836 22.08C142.062 22.08 143.033 22.448 143.748 23.184L143.14 24.08ZM147.216 22.272V27.264C147.216 27.872 147.355 28.3093 147.632 28.576C147.909 28.832 148.325 28.96 148.88 28.96C149.413 28.96 149.909 28.8267 150.368 28.56C150.827 28.2827 151.056 27.872 151.056 27.328V22.272H152.432V30H151.056V29.072C150.8 29.4133 150.421 29.6853 149.92 29.888C149.419 30.0907 148.88 30.192 148.304 30.192C146.661 30.192 145.84 29.3707 145.84 27.728V22.272H147.216ZM156.122 22.272V23.104C156.346 22.8053 156.677 22.56 157.114 22.368C157.562 22.176 158.053 22.08 158.586 22.08C159.642 22.08 160.351 22.5067 160.714 23.36C160.917 22.9653 161.253 22.656 161.722 22.432C162.191 22.1973 162.709 22.08 163.274 22.08C163.989 22.08 164.538 22.2773 164.922 22.672C165.306 23.056 165.498 23.6373 165.498 24.416V30H164.122V24.832C164.122 24.3413 164.005 23.9627 163.77 23.696C163.546 23.4293 163.205 23.296 162.746 23.296C162.479 23.296 162.191 23.36 161.882 23.488C161.583 23.616 161.327 23.7973 161.114 24.032C160.911 24.256 160.81 24.5227 160.81 24.832V30H159.434V24.832C159.434 24.3413 159.317 23.9627 159.082 23.696C158.858 23.4293 158.517 23.296 158.058 23.296C157.791 23.296 157.503 23.36 157.194 23.488C156.895 23.616 156.639 23.7973 156.426 24.032C156.223 24.256 156.122 24.5227 156.122 24.832V30H154.746V22.272H156.122ZM174.448 29.024C174.053 29.408 173.584 29.7013 173.04 29.904C172.507 30.096 171.947 30.192 171.36 30.192C170.592 30.192 169.904 30.0213 169.296 29.68C168.699 29.3387 168.229 28.864 167.888 28.256C167.547 27.6373 167.376 26.928 167.376 26.128C167.376 25.3707 167.541 24.6827 167.872 24.064C168.203 23.4453 168.661 22.96 169.248 22.608C169.835 22.256 170.491 22.08 171.216 22.08C171.963 22.08 172.619 22.256 173.184 22.608C173.76 22.96 174.203 23.4507 174.512 24.08C174.821 24.7093 174.976 25.4293 174.976 26.24V26.56H168.832C168.885 27.2853 169.152 27.8827 169.632 28.352C170.112 28.8213 170.731 29.056 171.488 29.056C171.915 29.056 172.331 28.976 172.736 28.816C173.141 28.656 173.488 28.4267 173.776 28.128L174.448 29.024ZM173.616 25.552C173.605 25.1253 173.504 24.7307 173.312 24.368C173.12 24.0053 172.843 23.7173 172.48 23.504C172.117 23.28 171.696 23.168 171.216 23.168C170.747 23.168 170.336 23.2853 169.984 23.52C169.632 23.7547 169.355 24.0533 169.152 24.416C168.96 24.7787 168.848 25.1573 168.816 25.552H173.616ZM178.185 22.272V23.232C178.473 22.8587 178.846 22.576 179.305 22.384C179.763 22.192 180.238 22.096 180.729 22.096V23.488C180.654 23.4667 180.494 23.456 180.249 23.456C179.993 23.456 179.699 23.5147 179.369 23.632C179.049 23.7387 178.771 23.888 178.537 24.08C178.302 24.272 178.185 24.48 178.185 24.704V30H176.809V22.272H178.185Z" fill="black"/>
</g>
<defs>
<clipPath id="clip0_6_278">
<rect width="242" height="50" rx="8" fill="white"/>
</clipPath>
<clipPath id="clip1_6_278">
<rect width="24" height="24" fill="white" transform="translate(13 13)"/>
</clipPath>
</defs>
</svg>
