<svg width="242" height="50" viewBox="0 0 242 50" fill="none" xmlns="http://www.w3.org/2000/svg">
<g clip-path="url(#clip0_6_278)">
<rect width="242" height="50" rx="8" fill="#DFF3F7"/>
<rect width="50" height="50" fill="#00729C"/>
<g clip-path="url(#clip1_6_278)">
<path d="M31 17H19C17.8954 17 17 17.8954 17 19V31C17 32.1046 17.8954 33 19 33H31C32.1046 33 33 32.1046 33 31V19C33 17.8954 32.1046 17 31 17Z" stroke="white" stroke-width="2" stroke-linecap="round" stroke-linejoin="round"/>
<path d="M28 22H22V28H28V22Z" stroke="white" stroke-width="2" stroke-linecap="round" stroke-linejoin="round"/>
<path d="M22 14V17" stroke="white" stroke-width="2" stroke-linecap="round" stroke-linejoin="round"/>
<path d="M28 14V17" stroke="white" stroke-width="2" stroke-linecap="round" stroke-linejoin="round"/>
<path d="M22 33V36" stroke="white" stroke-width="2" stroke-linecap="round" stroke-linejoin="round"/>
<path d="M28 33V36" stroke="white" stroke-width="2" stroke-linecap="round" stroke-linejoin="round"/>
<path d="M33 22H36" stroke="white" stroke-width="2" stroke-linecap="round" stroke-linejoin="round"/>
<path d="M33 27H36" stroke="white" stroke-width="2" stroke-linecap="round" stroke-linejoin="round"/>
<path d="M14 22H17" stroke="white" stroke-width="2" stroke-linecap="round" stroke-linejoin="round"/>
<path d="M14 27H17" stroke="white" stroke-width="2" stroke-linecap="round" stroke-linejoin="round"/>
</g>
<path d="M65.648 19.328C66.3413 19.328 66.944 19.472 67.456 19.76C67.968 20.048 68.3573 20.4427 68.624 20.944C68.9013 21.4347 69.04 21.984 69.04 22.592C69.04 23.1893 68.9013 23.7387 68.624 24.24C68.3573 24.7413 67.968 25.136 67.456 25.424C66.944 25.712 66.3413 25.856 65.648 25.856H62.736V30H61.2V19.328H65.648ZM62.736 24.496H65.488C66.0747 24.496 66.5493 24.32 66.912 23.968C67.2747 23.616 67.456 23.1573 67.456 22.592C67.456 22.016 67.2747 21.5573 66.912 21.216C66.5493 20.864 66.0747 20.688 65.488 20.688H62.736V24.496ZM74.0916 30.192C73.3236 30.192 72.6463 30.016 72.0596 29.664C71.473 29.3013 71.0196 28.8107 70.6996 28.192C70.3796 27.5733 70.2196 26.8853 70.2196 26.128C70.2196 25.3707 70.3796 24.688 70.6996 24.08C71.0196 23.4613 71.473 22.976 72.0596 22.624C72.6463 22.2613 73.3236 22.08 74.0916 22.08C74.8703 22.08 75.553 22.2613 76.1396 22.624C76.7263 22.976 77.1796 23.4613 77.4996 24.08C77.8196 24.688 77.9796 25.3707 77.9796 26.128C77.9796 26.8853 77.8196 27.5733 77.4996 28.192C77.1796 28.8107 76.7263 29.3013 76.1396 29.664C75.553 30.016 74.8703 30.192 74.0916 30.192ZM74.0916 28.96C74.8383 28.96 75.4303 28.6933 75.8676 28.16C76.3156 27.616 76.5396 26.9387 76.5396 26.128C76.5396 25.328 76.3156 24.656 75.8676 24.112C75.4303 23.568 74.8383 23.296 74.0916 23.296C73.601 23.296 73.169 23.424 72.7956 23.68C72.433 23.9253 72.1503 24.2667 71.9476 24.704C71.7556 25.1307 71.6596 25.6053 71.6596 26.128C71.6596 26.9387 71.8783 27.616 72.3156 28.16C72.7636 28.6933 73.3556 28.96 74.0916 28.96ZM80.2715 22.272L82.0635 28.224L84.0155 22.272H85.2315L87.1835 28.224L88.9595 22.272H90.4155L87.9675 30H86.5595L84.6235 24L82.6875 30H81.2795L78.8315 22.272H80.2715ZM98.3385 29.024C97.9438 29.408 97.4745 29.7013 96.9305 29.904C96.3972 30.096 95.8372 30.192 95.2505 30.192C94.4825 30.192 93.7945 30.0213 93.1865 29.68C92.5892 29.3387 92.1198 28.864 91.7785 28.256C91.4372 27.6373 91.2665 26.928 91.2665 26.128C91.2665 25.3707 91.4318 24.6827 91.7625 24.064C92.0932 23.4453 92.5518 22.96 93.1385 22.608C93.7252 22.256 94.3812 22.08 95.1065 22.08C95.8532 22.08 96.5092 22.256 97.0745 22.608C97.6505 22.96 98.0932 23.4507 98.4025 24.08C98.7118 24.7093 98.8665 25.4293 98.8665 26.24V26.56H92.7225C92.7758 27.2853 93.0425 27.8827 93.5225 28.352C94.0025 28.8213 94.6212 29.056 95.3785 29.056C95.8052 29.056 96.2212 28.976 96.6265 28.816C97.0318 28.656 97.3785 28.4267 97.6665 28.128L98.3385 29.024ZM97.5065 25.552C97.4958 25.1253 97.3945 24.7307 97.2025 24.368C97.0105 24.0053 96.7332 23.7173 96.3705 23.504C96.0078 23.28 95.5865 23.168 95.1065 23.168C94.6372 23.168 94.2265 23.2853 93.8745 23.52C93.5225 23.7547 93.2452 24.0533 93.0425 24.416C92.8505 24.7787 92.7385 25.1573 92.7065 25.552H97.5065ZM102.075 22.272V23.232C102.363 22.8587 102.737 22.576 103.195 22.384C103.654 22.192 104.129 22.096 104.619 22.096V23.488C104.545 23.4667 104.385 23.456 104.139 23.456C103.883 23.456 103.59 23.5147 103.259 23.632C102.939 23.7387 102.662 23.888 102.427 24.08C102.193 24.272 102.075 24.48 102.075 24.704V30H100.699V22.272H102.075ZM112.151 19.328L115.479 25.12L118.823 19.328H120.871V30H119.351V21.408L115.879 27.584H115.079L111.623 21.408V30H110.103V19.328H112.151ZM126.717 30.192C125.949 30.192 125.271 30.016 124.685 29.664C124.098 29.3013 123.645 28.8107 123.325 28.192C123.005 27.5733 122.845 26.8853 122.845 26.128C122.845 25.3707 123.005 24.688 123.325 24.08C123.645 23.4613 124.098 22.976 124.685 22.624C125.271 22.2613 125.949 22.08 126.717 22.08C127.495 22.08 128.178 22.2613 128.765 22.624C129.351 22.976 129.805 23.4613 130.125 24.08C130.445 24.688 130.605 25.3707 130.605 26.128C130.605 26.8853 130.445 27.5733 130.125 28.192C129.805 28.8107 129.351 29.3013 128.765 29.664C128.178 30.016 127.495 30.192 126.717 30.192ZM126.717 28.96C127.463 28.96 128.055 28.6933 128.493 28.16C128.941 27.616 129.165 26.9387 129.165 26.128C129.165 25.328 128.941 24.656 128.493 24.112C128.055 23.568 127.463 23.296 126.717 23.296C126.226 23.296 125.794 23.424 125.421 23.68C125.058 23.9253 124.775 24.2667 124.573 24.704C124.381 25.1307 124.285 25.6053 124.285 26.128C124.285 26.9387 124.503 27.616 124.941 28.16C125.389 28.6933 125.981 28.96 126.717 28.96ZM139.033 19.328V30H137.657V29.024C137.07 29.8027 136.217 30.192 135.097 30.192C134.425 30.192 133.828 30.032 133.305 29.712C132.793 29.3813 132.388 28.912 132.089 28.304C131.801 27.6853 131.657 26.9653 131.657 26.144C131.657 25.3333 131.801 24.624 132.089 24.016C132.388 23.3973 132.798 22.9227 133.321 22.592C133.844 22.2507 134.436 22.08 135.097 22.08C135.62 22.08 136.084 22.1707 136.489 22.352C136.894 22.5333 137.284 22.832 137.657 23.248V19.328H139.033ZM137.657 25.472C137.657 24.9813 137.54 24.576 137.305 24.256C137.07 23.9253 136.782 23.6853 136.441 23.536C136.11 23.376 135.785 23.296 135.465 23.296C134.74 23.296 134.164 23.5573 133.737 24.08C133.31 24.6027 133.097 25.2907 133.097 26.144C133.097 26.9867 133.31 27.6693 133.737 28.192C134.164 28.704 134.74 28.96 135.465 28.96C136.041 28.96 136.548 28.7893 136.985 28.448C137.433 28.1067 137.657 27.4933 137.657 26.608V25.472ZM142.732 22.272V27.264C142.732 27.872 142.87 28.3093 143.148 28.576C143.425 28.832 143.841 28.96 144.396 28.96C144.929 28.96 145.425 28.8267 145.884 28.56C146.342 28.2827 146.572 27.872 146.572 27.328V22.272H147.948V30H146.572V29.072C146.316 29.4133 145.937 29.6853 145.436 29.888C144.934 30.0907 144.396 30.192 143.82 30.192C142.177 30.192 141.356 29.3707 141.356 27.728V22.272H142.732ZM151.51 19.328V27.808C151.51 28.1173 151.574 28.3573 151.702 28.528C151.84 28.688 152.032 28.768 152.278 28.768H153.062V30H151.958C150.742 30 150.134 29.3707 150.134 28.112V19.328H151.51ZM160.932 29.024C160.538 29.408 160.068 29.7013 159.524 29.904C158.991 30.096 158.431 30.192 157.844 30.192C157.076 30.192 156.388 30.0213 155.78 29.68C155.183 29.3387 154.714 28.864 154.372 28.256C154.031 27.6373 153.86 26.928 153.86 26.128C153.86 25.3707 154.026 24.6827 154.356 24.064C154.687 23.4453 155.146 22.96 155.732 22.608C156.319 22.256 156.975 22.08 157.7 22.08C158.447 22.08 159.103 22.256 159.668 22.608C160.244 22.96 160.687 23.4507 160.996 24.08C161.306 24.7093 161.46 25.4293 161.46 26.24V26.56H155.316C155.37 27.2853 155.636 27.8827 156.116 28.352C156.596 28.8213 157.215 29.056 157.972 29.056C158.399 29.056 158.815 28.976 159.22 28.816C159.626 28.656 159.972 28.4267 160.26 28.128L160.932 29.024ZM160.1 25.552C160.09 25.1253 159.988 24.7307 159.796 24.368C159.604 24.0053 159.327 23.7173 158.964 23.504C158.602 23.28 158.18 23.168 157.7 23.168C157.231 23.168 156.82 23.2853 156.468 23.52C156.116 23.7547 155.839 24.0533 155.636 24.416C155.444 24.7787 155.332 25.1573 155.3 25.552H160.1Z" fill="black"/>
</g>
<rect x="0.5" y="0.5" width="241" height="49" rx="7.5" stroke="#00729C"/>
<defs>
<clipPath id="clip0_6_278">
<rect width="242" height="50" rx="8" fill="white"/>
</clipPath>
<clipPath id="clip1_6_278">
<rect width="24" height="24" fill="white" transform="translate(13 13)"/>
</clipPath>
</defs>
</svg>
